<?xml version="1.0" standalone="no"?>
<!DOCTYPE svg PUBLIC "-//W3C//DTD SVG 20010904//EN"
 "http://www.w3.org/TR/2001/REC-SVG-20010904/DTD/svg10.dtd">
<svg version="1.0" xmlns="http://www.w3.org/2000/svg"
 width="500.000000pt" height="341.000000pt" viewBox="0 0 500.000000 341.000000"
 preserveAspectRatio="xMidYMid meet">

<g transform="translate(0.000000,341.000000) scale(0.100000,-0.100000)"
fill="#000000" stroke="none">
<path d="M2029 3086 c-79 -23 -176 -76 -236 -130 -32 -29 -92 -70 -134 -91
l-75 -38 55 -28 c99 -50 170 -146 216 -296 l27 -85 -24 -25 c-36 -39 -193
-110 -303 -137 -106 -26 -249 -46 -327 -46 -27 0 -48 -2 -48 -5 0 -3 60 -106
133 -228 73 -122 191 -320 262 -439 l130 -218 77 0 c164 0 336 40 458 108 67
37 170 126 170 147 0 7 -25 29 -56 49 l-56 37 -49 -41 c-61 -52 -137 -86 -230
-106 -67 -14 -186 -17 -216 -6 -14 4 -103 142 -103 158 0 5 37 15 83 21 46 6
118 25 161 41 78 31 186 90 186 103 0 4 -21 33 -47 66 -26 32 -47 59 -48 61
-1 1 -27 -13 -56 -33 -72 -47 -191 -84 -298 -92 l-87 -6 -68 111 c-38 61 -69
114 -70 118 0 4 31 13 69 20 126 21 232 59 350 126 54 31 72 37 78 26 4 -7 27
-48 51 -91 231 -409 635 -698 1206 -861 150 -42 158 -38 30 14 -151 62 -397
188 -504 259 -379 251 -551 482 -712 955 -61 178 -98 239 -184 298 -27 18 -50
36 -50 40 0 9 87 79 145 116 118 74 289 112 420 93 38 -6 71 -9 73 -7 2 2 -25
14 -60 26 -79 28 -267 37 -339 16z"/>
<path d="M3025 3050 c-269 -94 -434 -240 -487 -429 -45 -164 0 -359 119 -508
41 -51 117 -124 101 -98 -14 26 -39 86 -58 144 -101 306 -2 561 268 691 53 25
66 28 81 18 10 -7 113 -96 229 -198 208 -181 212 -185 190 -200 -172 -115
-265 -247 -309 -436 -17 -77 -15 -239 4 -314 25 -96 89 -216 154 -290 54 -61
163 -160 177 -160 3 0 -23 35 -59 78 -71 84 -147 224 -170 312 -19 73 -19 193
1 261 50 171 215 344 433 454 l55 27 -260 257 c-143 141 -296 290 -339 332
l-80 77 -50 -18z"/>
<path d="M2136 2889 c-17 -14 -26 -30 -26 -50 0 -65 80 -93 119 -43 27 35 26
59 -4 89 -30 30 -54 31 -89 4z"/>
<path d="M4173 949 c-39 -11 -63 -43 -63 -85 0 -43 27 -73 95 -109 63 -32 70
-42 61 -80 -13 -52 -97 -45 -123 10 -23 48 -38 44 -37 -10 2 -50 10 -67 23
-46 7 10 13 11 31 1 59 -32 151 -2 170 54 18 56 -6 99 -77 135 -69 34 -86 51
-81 83 6 46 94 32 117 -18 6 -13 15 -24 21 -24 14 0 5 83 -9 88 -6 2 -11 -1
-11 -8 0 -7 -6 -8 -17 -2 -32 16 -67 20 -100 11z"/>
<path d="M550 942 c0 -4 10 -12 23 -17 21 -9 22 -17 25 -128 3 -119 -5 -157
-33 -157 -8 0 -15 -4 -15 -10 0 -6 35 -10 85 -10 86 0 104 7 63 25 -20 9 -23
19 -26 73 -3 55 -1 62 16 62 20 0 52 -29 52 -48 0 -7 5 -12 10 -12 6 0 10 28
10 65 0 36 -3 65 -6 65 -3 0 -15 -11 -26 -25 -11 -14 -28 -25 -39 -25 -17 0
-19 7 -19 60 0 64 -1 63 60 61 26 -2 42 -10 63 -34 l27 -31 0 47 0 47 -135 0
c-74 0 -135 -3 -135 -8z"/>
<path d="M840 942 c0 -4 9 -13 20 -20 18 -11 20 -23 20 -137 0 -114 -2 -126
-20 -137 -11 -7 -20 -16 -20 -20 0 -5 65 -8 145 -8 l145 0 0 50 c0 57 -9 63
-28 20 -7 -16 -21 -32 -31 -35 -37 -11 -93 -8 -102 6 -5 8 -9 70 -9 137 0 116
1 124 20 129 45 12 15 23 -60 23 -44 0 -80 -3 -80 -8z"/>
<path d="M1090 940 c0 -6 7 -13 15 -16 8 -3 35 -44 60 -90 41 -74 46 -90 43
-136 -3 -46 -6 -53 -26 -56 -51 -7 -5 -22 68 -22 79 0 112 12 65 24 -23 6 -25
11 -25 60 0 46 7 64 46 130 25 42 54 82 65 89 26 19 14 27 -43 27 -47 0 -63
-12 -33 -24 8 -3 15 -13 15 -22 0 -22 -53 -115 -64 -111 -4 1 -22 29 -40 60
-29 54 -30 59 -13 71 9 7 17 16 17 20 0 3 -34 6 -75 6 -45 0 -75 -4 -75 -10z"/>
<path d="M1440 941 c0 -5 9 -13 20 -16 19 -6 20 -15 20 -142 0 -126 -1 -135
-20 -140 -44 -12 -16 -23 58 -23 85 0 105 7 69 24 -21 11 -22 18 -25 139 -2
118 -1 127 18 139 35 22 22 28 -60 28 -44 0 -80 -4 -80 -9z"/>
<path d="M1637 943 c-4 -3 3 -11 16 -17 21 -11 22 -18 25 -139 2 -118 1 -127
-18 -139 -33 -21 -23 -28 35 -28 58 0 68 7 35 28 -18 11 -20 23 -20 117 l0
105 96 -113 c109 -127 132 -149 145 -141 5 3 9 70 9 150 0 133 2 145 20 156
33 21 23 28 -35 28 -30 0 -55 -3 -55 -6 0 -3 9 -13 20 -22 19 -15 21 -26 18
-104 l-3 -86 -94 109 -95 109 -46 0 c-26 0 -50 -3 -53 -7z"/>
<path d="M2094 918 c-108 -95 -76 -269 56 -299 33 -7 58 -5 121 12 l79 22 0
44 c0 32 4 43 15 43 8 0 15 5 15 10 0 6 -32 10 -75 10 -71 0 -99 -11 -55 -23
14 -4 20 -14 20 -35 0 -65 -69 -84 -120 -34 -76 76 -34 262 58 262 33 0 92
-42 92 -66 0 -8 6 -14 14 -14 10 0 12 11 8 48 -5 54 -10 62 -22 42 -7 -11 -13
-12 -35 -2 -14 7 -50 12 -80 12 -47 0 -59 -4 -91 -32z"/>
<path d="M2520 941 c0 -5 9 -11 20 -14 19 -5 20 -14 20 -140 0 -127 -1 -136
-20 -142 -51 -16 -10 -25 119 -25 154 0 153 -1 141 70 -6 30 -8 32 -15 15 -17
-42 -37 -55 -85 -55 -55 0 -60 7 -60 81 0 42 3 49 20 49 11 0 27 -11 36 -25 9
-14 20 -25 24 -25 4 0 7 29 6 65 0 36 -4 65 -8 65 -5 0 -8 -4 -8 -10 0 -15
-38 -50 -55 -50 -12 0 -15 13 -15 59 0 59 11 76 43 67 6 -3 24 -7 38 -10 14
-3 31 -17 37 -31 16 -35 27 -25 27 22 l0 38 -132 3 c-76 1 -133 -1 -133 -7z"/>
<path d="M2830 940 c0 -5 7 -10 15 -10 26 0 35 -37 35 -145 0 -100 -1 -107
-25 -131 -14 -14 -25 -27 -25 -29 0 -3 27 -5 60 -5 33 0 60 4 60 10 0 6 -7 10
-15 10 -26 0 -36 38 -33 136 l3 96 105 -125 c59 -71 113 -126 123 -126 15 -1
17 12 17 135 0 136 8 174 36 174 8 0 12 5 9 10 -8 12 -115 13 -115 1 0 -5 8
-11 18 -14 12 -2 22 -17 25 -37 10 -48 8 -150 -2 -150 -5 0 -50 47 -101 105
l-91 105 -50 0 c-27 0 -49 -4 -49 -10z"/>
<path d="M3299 927 c-50 -33 -81 -100 -76 -163 9 -124 113 -176 260 -129 56
18 57 19 57 56 0 27 6 41 23 52 21 15 18 16 -55 16 -46 1 -78 -3 -78 -9 0 -5
6 -10 14 -10 30 0 30 -65 -1 -87 -20 -16 -58 -17 -84 -3 -36 20 -51 67 -47
148 3 69 6 76 36 103 50 45 107 36 137 -21 23 -44 35 -37 35 20 0 36 -4 50
-14 50 -8 0 -16 -5 -18 -11 -2 -7 -12 -7 -31 0 -49 19 -120 13 -158 -12z"/>
<path d="M3590 941 c0 -5 9 -11 20 -14 19 -5 20 -14 20 -142 0 -128 -1 -137
-20 -142 -54 -14 -6 -23 125 -23 l145 0 0 50 c0 53 -14 67 -24 25 -3 -13 -16
-30 -28 -36 -28 -15 -99 -13 -109 3 -5 7 -9 69 -9 136 0 116 1 124 20 129 45
12 15 23 -60 23 -44 0 -80 -4 -80 -9z"/>
<path d="M3907 943 c-4 -3 3 -11 16 -17 21 -11 22 -17 22 -141 0 -124 -1 -130
-22 -141 -36 -17 -16 -24 69 -24 74 0 102 11 58 23 -19 5 -20 14 -20 142 0
128 1 137 20 142 11 3 20 9 20 14 0 10 -153 12 -163 2z"/>
<path d="M4360 940 c0 -5 7 -10 15 -10 19 0 32 -28 29 -67 -1 -18 -2 -74 -3
-124 -1 -82 -3 -91 -21 -96 -44 -12 -16 -23 58 -23 85 0 105 7 69 24 -19 10
-22 21 -25 74 l-3 63 73 -3 73 -3 3 -47 c3 -52 -10 -88 -33 -88 -8 0 -15 -4
-15 -10 0 -6 35 -10 85 -10 50 0 85 4 85 10 0 6 -7 10 -15 10 -28 0 -36 38
-33 157 3 111 4 119 26 128 41 18 23 25 -63 25 -50 0 -85 -4 -85 -10 0 -5 7
-10 15 -10 21 0 35 -33 35 -84 l0 -46 -75 0 -76 0 3 58 c3 48 7 59 26 67 41
18 23 25 -63 25 -50 0 -85 -4 -85 -10z"/>
<path d="M1201 436 c-33 -19 -50 -54 -51 -104 0 -61 40 -102 102 -102 24 0 50
4 58 10 9 5 19 5 27 -2 10 -8 13 -1 13 33 -1 41 -2 43 -15 25 -8 -11 -15 -23
-15 -27 0 -4 -14 -12 -30 -18 -26 -8 -34 -7 -56 12 -20 18 -26 32 -26 67 -1
60 8 84 36 99 31 17 63 6 80 -26 15 -30 30 -17 21 19 -5 20 -13 23 -63 25 -34
2 -67 -3 -81 -11z"/>
<path d="M1718 438 c8 -8 12 -45 12 -100 0 -72 -3 -89 -17 -97 -13 -8 9 -10
82 -8 l100 2 3 28 c4 32 -8 35 -26 7 -16 -27 -82 -29 -83 -2 0 9 -2 24 -4 33
-1 9 1 23 6 30 8 11 13 9 29 -10 l20 -23 0 47 0 47 -18 -22 c-31 -38 -44 -17
-33 53 3 17 61 6 75 -15 16 -22 16 -22 16 10 l0 32 -87 0 c-68 0 -84 -3 -75
-12z"/>
<path d="M2263 432 c23 -25 24 -148 1 -180 -15 -22 -14 -22 21 -22 35 0 36 0
21 22 -17 24 -23 142 -8 136 5 -1 39 -38 76 -80 37 -43 72 -78 77 -78 5 0 9
41 9 92 0 71 4 95 17 110 15 17 14 18 -28 18 -39 -1 -42 -2 -26 -14 14 -11 17
-25 15 -71 l-3 -57 -60 71 c-53 62 -64 71 -94 71 -32 0 -33 -1 -18 -18z"/>
<path d="M2840 418 c0 -32 0 -32 16 -10 8 12 26 22 40 22 24 0 24 -1 24 -86 0
-71 -3 -89 -17 -100 -16 -12 -10 -13 42 -13 52 0 58 1 43 13 -15 11 -18 29
-18 100 0 85 0 86 24 86 14 0 32 -10 40 -22 16 -22 16 -22 16 10 l0 32 -105 0
-105 0 0 -32z"/>
<path d="M3413 439 c14 -8 17 -25 17 -96 0 -70 -3 -88 -17 -99 -15 -11 -4 -13
80 -14 l97 0 0 33 0 32 -18 -23 c-14 -18 -26 -23 -53 -20 -32 3 -34 5 -37 46
-4 47 7 53 38 20 l20 -22 0 49 0 49 -20 -22 c-30 -32 -40 -27 -40 18 0 39 1
40 34 40 23 0 38 -7 49 -22 16 -23 16 -23 16 10 l1 32 -92 0 c-68 -1 -88 -3
-75 -11z"/>
<path d="M3953 440 c14 -9 17 -26 17 -100 0 -74 -3 -91 -17 -99 -14 -8 -4 -10
42 -10 52 0 58 1 43 13 -19 14 -26 86 -9 86 5 0 24 -22 42 -50 29 -42 39 -50
66 -50 l33 0 -40 52 -39 52 25 23 c19 17 24 29 19 46 -12 37 -23 42 -113 45
-66 2 -83 0 -69 -8z m125 -46 c4 -28 -18 -54 -45 -54 -13 0 -19 80 -7 93 14
14 49 -11 52 -39z"/>
</g>
</svg>
